# xmcd
#
# Track frame offsets:
#       150
#       17216
#       29571
#       48815
#       67938
#       85595
#       98248
#       123746
#       124791
#       138750
#       174527
#       175244
#       188323
#       208248
#
# Disc length: 2785 seconds
#
# Revision: 0
# Processed by: cddbd v1.4PL0 Copyright (c) Steve Scherf et al.
# Submitted via: CD-DA_X-Tractor v0.23
#
DISCID=b80adf0e
DTITLE=David Gogo - Skeleton Key
DYEAR=2002
DGENRE=
TTITLE0=(Just Ask) Jesse James
TTITLE1=Backstroke
TTITLE2=I Can Still Hear You Crying
TTITLE3=Stay Away From My Home
TTITLE4=Skeleton Key
TTITLE5=Walkin
TTITLE6=Reap What You Sow
TTITLE7=The Best One
TTITLE8=Things Are About To Change
TTITLE9=It Don't Make Sense (That You Can't Make Peace)
TTITLE10=Later To That
TTITLE11=Signed, Sealed, Delivered
TTITLE12=Personal Jesus
TTITLE13=Unknown Track
EXTD=
EXTT0=
EXTT1=
EXTT2=
EXTT3=
EXTT4=
EXTT5=
EXTT6=
EXTT7=
EXTT8=
EXTT9=
EXTT10=
EXTT11=
EXTT12=
EXTT13=
PLAYORDER=
